<?xml version="1.0" standalone="no"?>
<!DOCTYPE svg PUBLIC "-//W3C//DTD SVG 20010904//EN"
 "http://www.w3.org/TR/2001/REC-SVG-20010904/DTD/svg10.dtd">
<svg version="1.0" xmlns="http://www.w3.org/2000/svg"
 width="1942.000000pt" height="1942.000000pt" viewBox="0 0 1942.000000 1942.000000"
 preserveAspectRatio="xMidYMid meet">
<metadata>
Created by potrace 1.11, written by Peter Selinger 2001-2013
</metadata>
<g transform="translate(0.000000,1942.000000) scale(0.100000,-0.100000)"
fill="#000000" stroke="none">
<path d="M849 12608 c0 -44 0 -811 0 -868 l1 -45 578 0 577 0 3 472 2 472
-580 1 -580 0 -1 -32z"/>
<path d="M2605 10838 l0 -1803 1597 0 1597 0 88 114 c48 63 93 119 98 125 6 6
22 27 35 46 13 19 29 40 35 46 5 6 21 26 35 44 14 19 50 66 80 104 31 39 116
150 190 246 74 96 139 178 144 182 6 4 7 11 2 15 -4 4 -629 9 -1389 9 -760 1
-1385 2 -1388 3 -3 0 -5 97 -5 214 l1 212 948 0 949 0 21 26 c12 14 32 38 44
55 12 16 106 137 208 269 103 132 211 272 240 310 29 39 87 114 129 168 41 53
72 98 68 98 -4 1 -585 3 -1292 4 -707 1 -1292 3 -1301 4 -14 1 -16 24 -15 191
l1 190 1037 0 1037 0 222 288 c338 436 491 632 495 632 1 0 3 -795 3 -1767 0
-973 0 -1782 0 -1798 l1 -30 1592 0 1591 0 324 415 c178 228 329 422 336 430
7 8 22 27 33 42 14 18 23 23 26 15 2 -6 4 -211 3 -454 0 -297 3 -443 10 -444
38 -5 3154 -4 3167 1 10 3 28 19 40 36 30 41 324 420 361 464 6 8 64 82 127
164 63 82 134 172 158 202 23 29 42 54 42 56 0 2 -622 3 -1382 3 -761 -1
-1388 0 -1393 2 -7 2 -10 433 -10 1338 l0 1335 -560 -2 -560 -3 0 -1333 c0
-880 -3 -1332 -10 -1333 -5 -1 -632 -2 -1392 -3 l-1383 -1 0 65 c0 36 0 638 0
1338 l0 1272 -2518 0 -2518 0 1 -1802z"/>
<path d="M14414 10838 l1 -1803 1598 0 c1486 0 1600 1 1608 17 5 9 15 22 22
30 11 11 128 161 217 278 14 18 123 159 243 313 119 154 215 283 211 286 -3 3
-630 6 -1392 6 l-1387 0 0 215 0 215 948 0 949 0 24 30 c25 31 72 91 399 515
104 135 191 247 194 250 8 7 101 129 101 133 0 1 -584 2 -1297 2 -714 -1
-1303 0 -1308 2 -7 2 -11 70 -11 193 l-1 190 1038 0 1037 0 223 288 c122 158
283 364 356 459 73 94 133 174 133 177 0 3 -879 6 -1953 6 l-1953 0 0 -1802z"/>
<path d="M994 11502 l-140 -3 0 -1837 c1 -1010 -2 -1871 -6 -1913 -15 -160
-84 -241 -228 -269 -30 -6 -66 -14 -80 -16 -14 -3 -29 -9 -34 -14 -15 -15 -18
-103 -4 -130 12 -23 19 -25 68 -23 148 7 302 64 376 140 44 46 87 122 100 178
4 17 9 221 11 455 9 1165 7 1105 43 1230 67 227 243 445 452 558 51 28 238 97
285 105 10 2 53 9 96 17 58 9 77 17 78 29 1 9 2 348 3 753 l1 738 -120 0 c-66
1 -264 2 -440 3 -176 1 -383 1 -461 -1z m506 -492 c42 -85 67 -126 78 -126 59
-1 305 -24 310 -29 2 -2 -46 -63 -107 -136 -68 -81 -109 -139 -106 -148 2 -9
6 -29 9 -46 2 -16 12 -76 21 -133 9 -57 15 -106 12 -109 -3 -3 -25 4 -49 15
-106 51 -240 112 -245 112 -3 0 -19 -6 -36 -14 -18 -8 -66 -29 -107 -47 -41
-17 -96 -42 -122 -54 -31 -15 -48 -19 -48 -11 0 6 13 67 30 134 45 185 45 179
13 211 -16 15 -43 45 -62 67 -18 21 -58 65 -88 96 -61 64 -62 62 47 73 36 4
74 9 84 11 11 2 42 6 70 9 28 3 56 12 61 19 6 7 41 72 80 144 65 123 70 130
82 109 7 -12 40 -78 73 -147z"/>
<path d="M1894 9714 c-75 -18 -176 -54 -242 -87 -139 -67 -257 -202 -317 -362
-13 -32 -13 -36 -29 -125 -13 -70 -16 -218 -19 -825 l-3 -740 -26 -77 c-54
-161 -151 -274 -308 -360 -40 -22 -171 -72 -217 -83 -10 -3 -54 -14 -98 -25
-44 -11 -93 -24 -109 -28 -32 -8 -37 -21 -38 -94 -1 -73 11 -81 107 -75 99 7
124 12 244 47 224 65 346 134 472 266 105 112 167 221 204 364 13 51 19 282
20 880 2 784 1 774 57 882 56 106 120 156 273 213 55 21 105 43 112 49 19 17
30 87 21 123 -12 47 -53 69 -104 57z"/>
<path d="M1915 9253 c-40 -10 -88 -57 -114 -112 -29 -63 -26 38 -34 -1111 -2
-261 -7 -488 -11 -505 -5 -16 -9 -34 -10 -40 -38 -174 -167 -397 -303 -525
-176 -165 -390 -269 -708 -345 -102 -25 -124 -29 -201 -41 -39 -6 -45 -10 -53
-40 -12 -44 -5 -84 18 -108 44 -44 335 -14 536 55 86 30 221 88 285 122 358
194 622 575 679 982 5 42 9 386 8 851 -2 754 -3 783 -21 803 -19 21 -32 23
-71 14z"/>
<path d="M10702 8579 c-24 -4 -59 -18 -77 -29 -41 -26 -90 -86 -97 -120 -3
-14 -63 -218 -132 -455 -70 -236 -129 -437 -131 -445 -2 -8 -16 -55 -30 -105
-15 -49 -29 -97 -32 -105 -3 -13 25 -15 211 -15 119 0 216 2 216 5 1 3 38 153
83 334 l83 330 29 -50 c16 -27 34 -57 40 -67 85 -148 308 -485 335 -507 76
-61 193 -73 270 -28 45 26 69 56 146 180 35 57 68 108 74 115 5 7 10 15 10 17
0 3 17 32 37 63 21 32 44 70 53 84 8 15 37 63 65 108 48 78 50 80 58 53 10
-37 118 -462 123 -487 2 -11 12 -49 22 -85 l17 -65 210 0 c244 0 224 -14 181
130 -27 87 -162 549 -173 590 -3 11 -28 97 -55 190 -27 94 -51 178 -53 187
-27 134 -196 221 -317 164 -61 -29 -104 -83 -239 -303 -210 -343 -269 -438
-277 -440 -8 -2 -1 -14 -227 356 -99 161 -196 310 -216 331 -62 63 -126 85
-207 69z"/>
<path d="M13570 8569 c-93 -17 -162 -68 -243 -178 -64 -87 -267 -369 -322
-445 -16 -24 -68 -96 -115 -160 -47 -65 -98 -137 -115 -161 -16 -23 -49 -69
-73 -101 -24 -33 -67 -93 -97 -134 l-54 -75 97 -5 c53 -3 162 -4 242 -2 l145
3 60 85 c33 47 92 127 130 179 39 52 137 187 220 300 82 113 152 205 155 205
3 0 67 -84 140 -187 74 -104 137 -190 140 -193 7 -6 40 -58 40 -62 0 -2 -116
-3 -257 -3 -239 0 -258 -1 -273 -19 -8 -10 -19 -23 -25 -30 -5 -6 -26 -34 -44
-61 -19 -28 -61 -85 -94 -129 -32 -43 -56 -80 -54 -83 5 -4 1459 -5 1464 0 3
4 -29 50 -213 312 -66 94 -137 195 -159 225 -39 57 -218 310 -358 508 -78 111
-120 153 -185 186 -44 22 -109 33 -152 25z"/>
<path d="M3145 8563 c-296 -39 -527 -208 -597 -436 -22 -73 -29 -214 -15 -292
32 -174 154 -332 331 -429 53 -30 171 -71 226 -80 19 -3 46 -8 60 -11 23 -4
249 -6 622 -5 l146 0 116 149 c63 81 116 154 118 161 2 11 -86 14 -477 15
-519 2 -523 3 -619 59 -183 107 -189 362 -11 481 97 64 129 69 521 70 l351 0
26 30 c15 17 27 33 27 37 0 4 6 13 13 20 7 7 37 45 67 83 30 39 70 89 88 113
l35 42 -499 -2 c-275 -1 -512 -3 -529 -5z"/>
<path d="M4199 8568 c-5 -11 -2 -1251 3 -1254 7 -5 1109 -7 1113 -2 2 2 49 62
104 133 56 72 111 141 121 154 11 13 18 27 16 30 -2 3 -221 6 -485 6 l-481 -1
-1 31 c-3 67 1 109 10 114 5 3 154 6 331 6 l322 -1 124 161 125 160 -457 5
-458 5 1 33 c1 17 2 47 2 65 l1 32 362 0 362 0 113 145 c63 80 118 153 124
163 9 16 -26 17 -671 17 -374 0 -681 -1 -681 -2z"/>
<path d="M5656 8188 c0 -211 4 -403 8 -427 18 -107 75 -212 154 -282 77 -67
235 -133 372 -155 19 -3 132 -8 250 -11 165 -3 239 -1 317 11 311 47 484 178
538 408 12 50 15 142 15 451 l0 387 -195 0 -195 0 0 -363 c0 -410 -4 -442 -64
-495 -69 -60 -163 -79 -381 -76 -282 4 -358 30 -407 142 -19 43 -20 67 -21
419 l0 373 -196 0 -197 0 2 -382z"/>
<path d="M7392 7940 l-1 -630 37 0 c20 0 271 -1 557 -1 l520 0 25 30 c14 16
50 62 80 101 30 40 60 77 65 84 45 51 84 105 78 108 -5 2 -223 4 -485 3 -321
0 -478 3 -479 10 -1 5 -3 210 -4 455 -1 245 -3 451 -4 458 -1 9 -47 12 -195
12 l-194 0 0 -630z"/>
<path d="M8790 7940 l0 -630 58 0 c56 -1 771 -1 964 0 l96 0 114 146 c62 81
119 153 126 160 17 18 69 16 -488 18 l-475 1 0 75 0 74 330 0 331 0 119 154
c66 85 122 159 123 163 2 5 -201 9 -452 9 l-456 0 0 68 0 67 363 0 362 -1 20
25 c11 14 68 87 127 163 l108 138 -685 0 -685 0 0 -630z"/>
<path d="M14835 8551 c-22 -10 -51 -35 -63 -54 l-24 -36 -1 -575 -2 -575 120
-3 c66 -2 155 -2 198 0 l77 3 0 345 0 346 51 -44 c778 -655 782 -658 899 -655
75 2 110 20 137 70 17 29 18 78 20 615 l2 582 -197 -2 -197 -3 0 -342 c0 -230
-3 -339 -10 -335 -10 5 -295 241 -305 252 -5 5 -104 88 -145 121 -11 10 -40
34 -65 55 -25 22 -68 57 -95 79 -26 22 -60 51 -74 64 -111 101 -233 135 -326
92z"/>
<path d="M16779 8566 c-2 -2 -22 -7 -43 -10 -125 -20 -242 -86 -307 -174 -83
-113 -78 -287 13 -396 62 -76 192 -141 320 -162 23 -4 221 -7 438 -8 371 -2
397 -3 435 -21 76 -38 78 -93 4 -135 l-44 -25 -475 -1 c-261 -1 -482 -2 -490
-3 -8 -1 -30 -23 -49 -49 -19 -26 -40 -52 -45 -57 -6 -6 -46 -56 -89 -113
l-77 -102 227 0 c1122 -2 1091 -3 1229 65 214 105 295 314 198 513 -48 99
-141 173 -273 217 -96 33 -152 37 -541 36 -223 0 -355 4 -372 11 -21 8 -28 17
-28 38 0 55 -7 55 497 55 l464 0 106 135 c58 74 114 147 125 163 l19 27 -619
0 c-340 0 -621 -2 -623 -4z"/>
</g>
</svg>
